<svg width="512" height="512" viewBox="0 0 512 512" fill="none" xmlns="http://www.w3.org/2000/svg">
  <defs>
    <linearGradient id="bg" x1="64" y1="48" x2="446" y2="462" gradientUnits="userSpaceOnUse">
      <stop stop-color="#07101E"/>
      <stop offset="0.52" stop-color="#0D2238"/>
      <stop offset="1" stop-color="#07101E"/>
    </linearGradient>
    <radialGradient id="coreGlow" cx="0" cy="0" r="1" gradientUnits="userSpaceOnUse" gradientTransform="translate(262 238) rotate(90) scale(218 218)">
      <stop stop-color="#22D3EE" stop-opacity="0.42"/>
      <stop offset="0.5" stop-color="#2563EB" stop-opacity="0.2"/>
      <stop offset="1" stop-color="#020617" stop-opacity="0"/>
    </radialGradient>
    <linearGradient id="cyanStroke" x1="102" y1="118" x2="410" y2="392" gradientUnits="userSpaceOnUse">
      <stop stop-color="#67E8F9"/>
      <stop offset="0.45" stop-color="#22D3EE"/>
      <stop offset="1" stop-color="#60A5FA"/>
    </linearGradient>
    <linearGradient id="goldStroke" x1="160" y1="104" x2="356" y2="404" gradientUnits="userSpaceOnUse">
      <stop stop-color="#FDE68A"/>
      <stop offset="1" stop-color="#F59E0B"/>
    </linearGradient>
    <linearGradient id="shipHull" x1="214" y1="112" x2="298" y2="360" gradientUnits="userSpaceOnUse">
      <stop stop-color="#F8FAFC"/>
      <stop offset="0.45" stop-color="#A9B9CF"/>
      <stop offset="1" stop-color="#52657D"/>
    </linearGradient>
    <linearGradient id="glass" x1="256" y1="154" x2="256" y2="248" gradientUnits="userSpaceOnUse">
      <stop stop-color="#CFFAFE"/>
      <stop offset="0.52" stop-color="#38BDF8"/>
      <stop offset="1" stop-color="#1D4ED8"/>
    </linearGradient>
    <linearGradient id="flame" x1="256" y1="324" x2="256" y2="425" gradientUnits="userSpaceOnUse">
      <stop stop-color="#FEF3C7"/>
      <stop offset="0.38" stop-color="#F59E0B"/>
      <stop offset="1" stop-color="#DC2626"/>
    </linearGradient>
    <filter id="softGlow" x="48" y="46" width="416" height="420" filterUnits="userSpaceOnUse" color-interpolation-filters="sRGB">
      <feGaussianBlur stdDeviation="9"/>
    </filter>
    <filter id="shadow" x="94" y="82" width="324" height="366" filterUnits="userSpaceOnUse" color-interpolation-filters="sRGB">
      <feDropShadow dx="0" dy="18" stdDeviation="18" flood-color="#020617" flood-opacity="0.55"/>
    </filter>
  </defs>

  <rect x="28" y="28" width="456" height="456" rx="112" fill="url(#bg)"/>
  <rect x="28" y="28" width="456" height="456" rx="112" fill="url(#coreGlow)"/>
  <rect x="43" y="43" width="426" height="426" rx="96" stroke="#1F3B58" stroke-width="2"/>

  <g opacity="0.48">
    <path d="M100 304C154 202 249 139 386 116" stroke="#31516F" stroke-width="2" stroke-linecap="round"/>
    <path d="M116 374C196 320 272 276 418 270" stroke="#31516F" stroke-width="2" stroke-linecap="round"/>
    <path d="M122 154L394 356" stroke="#31516F" stroke-width="2" stroke-linecap="round"/>
    <circle cx="112" cy="153" r="4" fill="#DCE7F8"/>
    <circle cx="386" cy="116" r="5" fill="#DCE7F8"/>
    <circle cx="418" cy="270" r="4" fill="#DCE7F8"/>
    <circle cx="394" cy="356" r="4" fill="#DCE7F8"/>
    <circle cx="100" cy="304" r="3" fill="#DCE7F8"/>
  </g>

  <g filter="url(#softGlow)" opacity="0.72">
    <path d="M116 326C151 385 205 418 268 414C333 410 384 370 410 314" stroke="url(#cyanStroke)" stroke-width="18" stroke-linecap="round"/>
    <path d="M136 205C179 132 260 96 343 121" stroke="url(#goldStroke)" stroke-width="12" stroke-linecap="round"/>
  </g>

  <path d="M116 326C151 385 205 418 268 414C333 410 384 370 410 314" stroke="url(#cyanStroke)" stroke-width="10" stroke-linecap="round"/>
  <path d="M136 205C179 132 260 96 343 121" stroke="url(#goldStroke)" stroke-width="7" stroke-linecap="round"/>

  <g filter="url(#shadow)">
    <path d="M256 90L296 140L316 232L372 302L322 288L296 346L274 326L256 292L238 326L216 346L190 288L140 302L196 232L216 140L256 90Z" fill="url(#shipHull)"/>
    <path d="M256 123L284 158L298 228L326 278L292 262L256 244L220 262L186 278L214 228L228 158L256 123Z" fill="#6E8199"/>
    <path d="M226 180L256 142L286 180L276 240H236L226 180Z" fill="url(#glass)"/>
    <path d="M238 132L256 108L274 132L266 154H246L238 132Z" fill="#F8FAFC" fill-opacity="0.92"/>
    <path d="M214 230L162 282L204 270L232 248L214 230Z" fill="#40536A"/>
    <path d="M298 230L350 282L308 270L280 248L298 230Z" fill="#40536A"/>
    <path d="M236 322L256 292L276 322L266 358H246L236 322Z" fill="#42546A"/>
    <path d="M228 352C238 386 248 410 256 430C264 410 274 386 284 352H228Z" fill="url(#flame)"/>
    <path d="M242 354C247 371 252 386 256 398C260 386 265 371 270 354H242Z" fill="#FFF7D6"/>
    <path d="M214 214H298" stroke="#F8FAFC" stroke-opacity="0.36" stroke-width="6" stroke-linecap="round"/>
    <path d="M226 256H286" stroke="#F8FAFC" stroke-opacity="0.24" stroke-width="5" stroke-linecap="round"/>
  </g>

  <path d="M126 398L168 398" stroke="#22D3EE" stroke-width="8" stroke-linecap="round"/>
  <path d="M344 398L386 398" stroke="#F59E0B" stroke-width="8" stroke-linecap="round"/>
</svg>
